<?xml version="1.0" encoding="UTF-8"?>
<svg width="1130px" height="200px" viewBox="0 0 1130 200" version="1.1" xmlns="http://www.w3.org/2000/svg" xmlns:xlink="http://www.w3.org/1999/xlink">
    <!-- Generator: Sketch 64 (93537) - https://sketch.com -->
    <title>RhinoDisk</title>
    <desc>Created with Sketch.</desc>
    <g id="RhinoDisk" stroke="none" stroke-width="1" fill="none" fill-rule="evenodd">
        <path d="M47.328125,173.953125 L47.328125,120.632812 L60.4140625,120.632812 L100.941406,173.953125 L145.472656,173.953125 L96.546875,112.136719 C104.945312,108.035156 111.651042,102.517578 116.664062,95.5839844 C121.677083,88.6503906 124.183594,79.6171875 124.183594,68.484375 C124.183594,60.6067708 122.653646,54.1126302 119.59375,49.0019531 C116.533854,43.891276 112.39974,39.6757812 107.191406,36.3554688 C102.113281,33.1653646 96.5794271,31.0657552 90.5898438,30.0566406 C84.6002604,29.047526 77.5690104,28.5429688 69.4960938,28.5429688 L69.4960938,28.5429688 L11,28.5429688 L11,173.953125 L47.328125,173.953125 Z M57.7773438,94.4609375 L47.328125,94.4609375 L47.328125,55.3007812 L59.5351562,55.3007812 C63.7018229,55.3007812 67.1848958,55.4309896 69.984375,55.6914062 C72.7838542,55.9518229 75.3229167,56.5703125 77.6015625,57.546875 C80.8567708,58.9791667 83.1842448,61.0136719 84.5839844,63.6503906 C85.983724,66.2871094 86.6835938,69.4283854 86.6835938,73.0742188 C86.6835938,77.1757812 86.1139323,80.4960938 84.9746094,83.0351562 C83.8352865,85.5742188 82.09375,87.7552083 79.75,89.578125 C77.2760417,91.5963542 74.264974,92.9147135 70.7167969,93.5332031 C67.1686198,94.1516927 62.8554688,94.4609375 57.7773438,94.4609375 L57.7773438,94.4609375 Z M200.941406,173.953125 L200.941406,96.21875 C204.196615,93.9401042 207.25651,92.2799479 210.121094,91.2382812 C212.985677,90.1966146 215.817708,89.6757812 218.617188,89.6757812 C222.328125,89.6757812 225.290365,90.2128906 227.503906,91.2871094 C229.717448,92.3613281 231.410156,94.1354167 232.582031,96.609375 C233.558594,98.6927083 234.225911,101.931641 234.583984,106.326172 C234.942057,110.720703 235.121094,115.13151 235.121094,119.558594 L235.121094,119.558594 L235.121094,173.953125 L269.496094,173.953125 L269.496094,102.566406 C269.496094,89.1549479 266.533854,78.9173177 260.609375,71.8535156 C254.684896,64.7897135 246.123698,61.2578125 234.925781,61.2578125 C228.480469,61.2578125 222.604818,62.5924479 217.298828,65.2617188 C211.992839,67.9309896 206.540365,71.6419271 200.941406,76.3945312 L200.941406,76.3945312 L200.941406,22 L166.761719,22 L166.761719,173.953125 L200.941406,173.953125 Z M342.445312,48.6601562 L342.445312,22 L306.3125,22 L306.3125,48.6601562 L342.445312,48.6601562 Z M341.46875,173.953125 L341.46875,64.2851562 L307.289062,64.2851562 L307.289062,173.953125 L341.46875,173.953125 Z M414.320312,173.953125 L414.320312,96.21875 C417.575521,93.9401042 420.635417,92.2799479 423.5,91.2382812 C426.364583,90.1966146 429.196615,89.6757812 431.996094,89.6757812 C435.707031,89.6757812 438.669271,90.2128906 440.882812,91.2871094 C443.096354,92.3613281 444.789062,94.1354167 445.960938,96.609375 C446.9375,98.6927083 447.604818,101.931641 447.962891,106.326172 C448.320964,110.720703 448.5,115.13151 448.5,119.558594 L448.5,119.558594 L448.5,173.953125 L482.875,173.953125 L482.875,102.566406 C482.875,89.1549479 479.91276,78.9173177 473.988281,71.8535156 C468.063802,64.7897135 459.502604,61.2578125 448.304688,61.2578125 C441.859375,61.2578125 435.983724,62.5924479 430.677734,65.2617188 C425.371745,67.9309896 419.919271,71.6419271 414.320312,76.3945312 L414.320312,76.3945312 L414.320312,64.2851562 L380.140625,64.2851562 L380.140625,173.953125 L414.320312,173.953125 Z M569.300781,177.371094 C587.334635,177.371094 601.283203,172.179036 611.146484,161.794922 C621.009766,151.410807 625.941406,137.201823 625.941406,119.167969 C625.941406,101.06901 620.99349,86.827474 611.097656,76.4433594 C601.201823,66.0592448 587.269531,60.8671875 569.300781,60.8671875 C551.397135,60.8671875 537.48112,66.0266927 527.552734,76.3457031 C517.624349,86.6647135 512.660156,100.938802 512.660156,119.167969 C512.660156,137.201823 517.624349,151.410807 527.552734,161.794922 C537.48112,172.179036 551.397135,177.371094 569.300781,177.371094 Z M569.59375,152.859375 C566.273438,152.859375 563.246094,152.273438 560.511719,151.101562 C557.777344,149.929688 555.498698,148.074219 553.675781,145.535156 C551.917969,143.061198 550.485677,139.757161 549.378906,135.623047 C548.272135,131.488932 547.71875,126.06901 547.71875,119.363281 C547.71875,112.657552 548.304688,107.091146 549.476562,102.664062 C550.648438,98.2369792 552.210938,94.7539062 554.164062,92.2148438 C556.247396,89.5455729 558.526042,87.7389323 561,86.7949219 C563.473958,85.8509115 566.240885,85.3789062 569.300781,85.3789062 C572.55599,85.3789062 575.453125,85.9160156 577.992188,86.9902344 C580.53125,88.0644531 582.809896,89.96875 584.828125,92.703125 C586.716146,95.3072917 588.197266,98.7740885 589.271484,103.103516 C590.345703,107.432943 590.882812,112.852865 590.882812,119.363281 C590.882812,126.329427 590.361979,131.781901 589.320312,135.720703 C588.278646,139.659505 586.748698,143.028646 584.730469,145.828125 C583.03776,148.171875 580.775391,149.929688 577.943359,151.101562 C575.111328,152.273438 572.328125,152.859375 569.59375,152.859375 Z M704.066406,173.953125 C714.092448,173.953125 723.548828,173.253255 732.435547,171.853516 C741.322266,170.453776 749.541667,167.3125 757.09375,162.429688 C766.143229,156.700521 773.630208,148.48112 779.554688,137.771484 C785.479167,127.061849 788.441406,114.936198 788.441406,101.394531 C788.441406,87.3320312 785.674479,75.108724 780.140625,64.7246094 C774.606771,54.3404948 767.054688,46.0885417 757.484375,39.96875 C749.671875,34.9557292 741.30599,31.7981771 732.386719,30.4960938 C723.467448,29.1940104 713.897135,28.5429688 703.675781,28.5429688 L703.675781,28.5429688 L658.558594,28.5429688 L658.558594,173.953125 L704.066406,173.953125 Z M696.671792,146.707031 L695.082031,146.707031 L695.082031,55.6914062 L696.704125,55.6914062 C703.85705,55.702483 710.038357,55.8324653 715.248047,56.0820312 C720.684245,56.3424479 725.876302,57.8398438 730.824219,60.5742188 C737.660156,64.4153646 742.722005,69.7376302 746.009766,76.5410156 C749.297526,83.344401 750.941406,91.53125 750.941406,101.101562 C750.941406,110.671875 749.378906,118.777344 746.253906,125.417969 C743.128906,132.058594 738.571615,137.266927 732.582031,141.042969 C727.503906,144.233073 722.149089,145.974609 716.517578,146.267578 C710.886068,146.560547 703.96875,146.707031 695.765625,146.707031 L696.671792,146.707031 Z M855.726562,48.6601562 L855.726562,22 L819.59375,22 L819.59375,48.6601562 L855.726562,48.6601562 Z M854.75,173.953125 L854.75,64.2851562 L820.570312,64.2851562 L820.570312,173.953125 L854.75,173.953125 Z M926.820312,176.980469 C935.674479,176.980469 943.275391,176.036458 949.623047,174.148438 C955.970703,172.260417 961.488281,169.591146 966.175781,166.140625 C970.602865,162.950521 974.020833,159.027995 976.429688,154.373047 C978.838542,149.718099 980.042969,144.81901 980.042969,139.675781 C980.042969,131.53776 978.008464,125.011068 973.939453,120.095703 C969.870443,115.180339 963.897135,111.453125 956.019531,108.914062 C952.503906,107.742188 948.841797,106.814453 945.033203,106.130859 C941.224609,105.447266 937.855469,104.747396 934.925781,104.03125 C929.261719,102.664062 925.583333,101.264323 923.890625,99.8320312 C922.197917,98.3997396 921.351562,96.4466146 921.351562,93.9726562 C921.351562,91.1731771 923.060547,88.9270833 926.478516,87.234375 C929.896484,85.5416667 934.079427,84.6953125 939.027344,84.6953125 C942.738281,84.6953125 946.367839,85.1184896 949.916016,85.9648438 C953.464193,86.8111979 956.670573,87.8854167 959.535156,89.1875 C961.94401,90.2942708 964.417969,91.6126302 966.957031,93.1425781 C969.496094,94.672526 971.351562,95.8932292 972.523438,96.8046875 L972.523438,96.8046875 L975.257812,96.8046875 L975.257812,69.0703125 C970.830729,66.921875 965.394531,65.0826823 958.949219,63.5527344 C952.503906,62.0227865 945.440104,61.2578125 937.757812,61.2578125 C929.684896,61.2578125 922.442057,62.234375 916.029297,64.1875 C909.616536,66.140625 904.229167,68.7773438 899.867188,72.0976562 C895.505208,75.4830729 892.201172,79.3404948 889.955078,83.6699219 C887.708984,87.999349 886.585938,92.6054688 886.585938,97.4882812 C886.585938,106.016927 888.750651,112.901693 893.080078,118.142578 C897.409505,123.383464 903.871094,127.338542 912.464844,130.007812 C915.52474,130.984375 919.040365,131.847005 923.011719,132.595703 C926.983073,133.344401 930.270833,134.044271 932.875,134.695312 C937.757812,135.867188 941.045573,137.104167 942.738281,138.40625 C944.43099,139.708333 945.277344,141.628906 945.277344,144.167969 C945.277344,147.423177 943.438151,149.799479 939.759766,151.296875 C936.08138,152.794271 931.833333,153.542969 927.015625,153.542969 C922.328125,153.542969 917.982422,153.005859 913.978516,151.931641 C909.974609,150.857422 906.377604,149.571615 903.1875,148.074219 C899.476562,146.446615 896.579427,144.884115 894.496094,143.386719 C892.41276,141.889323 890.557292,140.522135 888.929688,139.285156 L888.929688,139.285156 L886.097656,139.285156 L886.097656,168.191406 C890.785156,170.535156 896.725911,172.585938 903.919922,174.34375 C911.113932,176.101562 918.747396,176.980469 926.820312,176.980469 Z M1043.03125,173.953125 L1043.03125,133.328125 L1048.30469,126.199219 L1077.99219,173.953125 L1118.61719,173.953125 L1077.40625,111.550781 L1115.78516,64.2851562 L1075.45312,64.2851562 L1043.03125,107.15625 L1043.03125,22 L1008.85156,22 L1008.85156,173.953125 L1043.03125,173.953125 Z" fill="#606060" fill-rule="nonzero"></path>
    </g>
</svg>